<?xml version="1.0" encoding="UTF-8"?>
<svg id="Icons" xmlns="http://www.w3.org/2000/svg" viewBox="0 0 200 200">
  <defs>
    <style>
      .cls-1 {
        stroke-miterlimit: 10;
      }

      .cls-1, .cls-2 {
        stroke-linecap: round;
      }

      .cls-1, .cls-2, .cls-3 {
        fill: none;
        stroke: #fff;
        stroke-width: 3px;
      }

      .cls-2, .cls-3 {
        stroke-linejoin: round;
      }
    </style>
  </defs>
  <g>
    <path class="cls-2" d="M99.96,107.38c-8.72,0-15.79,7.07-15.79,15.79"/>
    <line class="cls-3" x1="100" y1="95.57" x2="100" y2="87.68"/>
    <line class="cls-3" x1="72.36" y1="123.21" x2="64.47" y2="123.21"/>
    <line class="cls-3" x1="135.53" y1="123.21" x2="127.64" y2="123.21"/>
    <line class="cls-3" x1="80.46" y1="103.66" x2="74.88" y2="98.09"/>
    <line class="cls-3" x1="125.12" y1="148.33" x2="119.54" y2="142.75"/>
    <line class="cls-3" x1="80.46" y1="142.74" x2="74.88" y2="148.33"/>
    <line class="cls-3" x1="125.12" y1="98.09" x2="119.53" y2="103.68"/>
    <path class="cls-1" d="M93.68,159.53h2.36v3.15h7.89v-3.15h2.36v-13.5c10.01-2.77,17.36-11.93,17.36-22.82,0-13.08-10.6-23.68-23.68-23.68s-23.67,10.6-23.67,23.68c0,10.9,7.35,20.06,17.36,22.82,0,0,0,13.5,0,13.5Z"/>
    <line class="cls-2" x1="93.68" y1="150.68" x2="106.32" y2="150.68"/>
  </g>
  <path class="cls-1" d="M31.82,127.19s-2.85,3.16,1.42,6.88c0,0,3.38,10.37,11.9,10.37"/>
  <path class="cls-1" d="M58.29,127.17s2.86,3.34-1.43,7c0,0-3.5,10.33-11.99,10.24"/>
  <g>
    <path class="cls-1" d="M38.04,141.54l-.51,5.85-13.97,5.67s-3.26.93-4.47,7.53l-1.32,10.02"/>
    <polyline class="cls-1" points="37.51 147.37 45.06 155.2 52.86 147.55"/>
  </g>
  <path class="cls-1" d="M52.38,141.23l.48,6.32,13.91,5.83s3.26.97,4.39,7.57l1.21,10.06"/>
  <path class="cls-1" d="M31.1,126.42v-8.52s.4-7.9,8.95-7.53c0,0,.93-2.07,6.76-1.86,0,0,10.85.22,12.21,10.2v8.08s-1.88,2.02-3.48-3.24l-6.01.08s-6.01.06-11.94-5.24c0,0-.49,3.79-3.6,8.18,0,0-.49.59-1.42.59-.02.02-1.48.18-1.48-.75Z"/>
  <path class="cls-1" d="M141.69,127.19s-2.85,3.16,1.42,6.88c0,0,3.38,10.37,11.9,10.37"/>
  <path class="cls-1" d="M168.16,127.17s2.86,3.34-1.43,7c0,0-3.5,10.33-11.99,10.24"/>
  <g>
    <path class="cls-1" d="M147.91,141.54l-.51,5.85-13.97,5.67s-3.26.93-4.47,7.53l-1.32,10.02"/>
    <polyline class="cls-1" points="147.38 147.37 154.93 155.2 162.73 147.55"/>
  </g>
  <path class="cls-1" d="M162.25,141.23l.48,6.32,13.91,5.83s3.26.97,4.39,7.57l1.21,10.06"/>
  <path class="cls-1" d="M140.97,126.42v-8.52s.4-7.9,8.95-7.53c0,0,.93-2.07,6.76-1.86,0,0,10.85.22,12.21,10.2v8.08s-1.88,2.02-3.48-3.24l-6.01.08s-6.01.06-11.94-5.24c0,0-.49,3.79-3.6,8.18,0,0-.49.59-1.42.59-.02.02-1.48.18-1.48-.75Z"/>
  <path class="cls-1" d="M106.24,36.22c-6.3,9.01-17.5,8.26-17.5,8.26,0,10.53,5.03,19.05,11.22,19.05s11.22-8.53,11.22-19.05c.07.03-3.22-1.55-4.94-8.26Z"/>
  <path class="cls-1" d="M88.25,64.12c-1.83-.37-2.67-1.66-2.67-1.66v-3.19c-1.46-8.54-1.46-8-1.44-13.01,0-9.55,7.07-17.26,15.82-17.26s15.82,7.74,15.82,17.26c0,0,.17,7.25-1.35,13.11l-.24,3.14s-.88,1.25-2.62,1.89"/>
  <path class="cls-1" d="M105.14,61.37l1.4,4.36,14.23,5.57s3.55,1.05,4.77,8.23l1.31,10.94"/>
  <path class="cls-1" d="M93.39,65.74l6.06,4.89s.9.85,1.96,0l5.11-4.89"/>
  <path class="cls-1" d="M73.07,90.48l1.31-10.94c1.23-7.18,4.77-8.23,4.77-8.23l14.23-5.57,1.4-4.36"/>
</svg>