<?xml version="1.0" encoding="UTF-8"?>
<svg width="351px" height="142px" viewBox="0 0 351 142" version="1.1" xmlns="http://www.w3.org/2000/svg" xmlns:xlink="http://www.w3.org/1999/xlink">
    <title>OIC_Bielefeld_Claim_4C</title>
    <defs>
        <polygon id="path-1" points="0 258.814 469.194 258.814 469.194 0 0 0"></polygon>
    </defs>
    <g id="OIC_Bielefeld_Claim_4C" stroke="none" stroke-width="1" fill="none" fill-rule="evenodd">
        <g id="claim" transform="translate(-56, -57)">
            <mask id="mask-2" fill="white">
                <use xlink:href="#path-1"></use>
            </mask>
            <g id="Clip-10"></g>
            <path d="M253.047,183.4684 C253.047,184.8644 252.542,185.9604 251.532,186.7554 C250.523,187.5504 249.13,187.9474 247.354,187.9474 C245.577,187.9474 244.124,187.6724 242.992,187.1204 L242.992,184.6934 C243.708,185.0304 244.469,185.2944 245.276,185.4884 C246.08,185.6814 246.831,185.7784 247.526,185.7784 C248.542,185.7784 249.293,185.5844 249.776,185.1974 C250.26,184.8114 250.501,184.2914 250.501,183.6404 C250.501,183.0534 250.279,182.5554 249.835,182.1474 C249.391,181.7394 248.475,181.2554 247.085,180.6974 C245.652,180.1164 244.643,179.4544 244.056,178.7094 C243.469,177.9644 243.175,177.0704 243.175,176.0244 C243.175,174.7134 243.641,173.6824 244.571,172.9304 C245.502,172.1784 246.752,171.8024 248.32,171.8024 C249.824,171.8024 251.321,172.1314 252.811,172.7904 L251.994,174.8854 C250.598,174.2984 249.352,174.0044 248.256,174.0044 C247.425,174.0044 246.795,174.1854 246.365,174.5474 C245.936,174.9084 245.721,175.3864 245.721,175.9814 C245.721,176.3894 245.807,176.7394 245.979,177.0284 C246.151,177.3194 246.434,177.5924 246.827,177.8504 C247.221,178.1084 247.93,178.4484 248.954,178.8704 C250.108,179.3504 250.952,179.7984 251.489,180.2134 C252.026,180.6284 252.42,181.0984 252.671,181.6204 C252.922,182.1434 253.047,182.7594 253.047,183.4684" id="Fill-27" fill="#00B2BB" mask="url(#mask-2)"></path>
            <path d="M260.2442,185.9069 C260.8602,185.9069 261.4752,185.8099 262.0922,185.6169 L262.0922,187.5179 C261.8122,187.6399 261.4532,187.7419 261.0122,187.8249 C260.5722,187.9069 260.1152,187.9479 259.6422,187.9479 C257.2512,187.9479 256.0552,186.6869 256.0552,184.1669 L256.0552,177.7639 L254.4322,177.7639 L254.4322,176.6469 L256.1732,175.7229 L257.0322,173.2099 L258.5902,173.2099 L258.5902,175.8519 L261.9732,175.8519 L261.9732,177.7639 L258.5902,177.7639 L258.5902,184.1239 C258.5902,184.7319 258.7422,185.1819 259.0472,185.4709 C259.3502,185.7619 259.7502,185.9069 260.2442,185.9069" id="Fill-28" fill="#00B2BB" mask="url(#mask-2)"></path>
            <path d="M268.1388,186.0143 C269.0558,186.0143 269.7908,185.7583 270.3458,185.2463 C270.9018,184.7343 271.1788,184.0163 271.1788,183.0923 L271.1788,182.0613 L269.6538,182.1253 C268.4648,182.1683 267.5998,182.3683 267.0588,182.7213 C266.5188,183.0773 266.2478,183.6183 266.2478,184.3493 C266.2478,184.8793 266.4058,185.2893 266.7208,185.5783 C267.0358,185.8693 267.5088,186.0143 268.1388,186.0143 L268.1388,186.0143 Z M271.8988,187.7333 L271.3938,186.0783 L271.3078,186.0783 C270.7348,186.8023 270.1588,187.2943 269.5778,187.5553 C268.9978,187.8173 268.2528,187.9483 267.3438,187.9483 C266.1768,187.9483 265.2658,187.6323 264.6098,187.0023 C263.9548,186.3723 263.6268,185.4813 263.6268,184.3273 C263.6268,183.1033 264.0818,182.1793 264.9918,181.5563 C265.9008,180.9333 267.2858,180.5933 269.1488,180.5353 L271.2008,180.4713 L271.2008,179.8373 C271.2008,179.0783 271.0238,178.5103 270.6678,178.1353 C270.3148,177.7583 269.7648,177.5713 269.0198,177.5713 C268.4108,177.5713 267.8268,177.6603 267.2688,177.8393 C266.7098,178.0183 266.1728,178.2303 265.6578,178.4733 L264.8408,176.6683 C265.4858,176.3313 266.1908,176.0763 266.9568,175.9013 C267.7238,175.7253 268.4468,175.6373 269.1268,175.6373 C270.6378,175.6373 271.7788,175.9663 272.5488,176.6253 C273.3188,177.2853 273.7028,178.3193 273.7028,179.7303 L273.7028,187.7333 L271.8988,187.7333 Z" id="Fill-29" fill="#00B2BB" mask="url(#mask-2)"></path>
            <path d="M281.9102,185.9069 C282.9482,185.9069 283.7042,185.6149 284.1772,185.0319 C284.6492,184.4479 284.8922,183.5009 284.9072,182.1899 L284.9072,181.8359 C284.9072,180.3389 284.6642,179.2749 284.1772,178.6449 C283.6892,178.0149 282.9272,177.6999 281.8892,177.6999 C281.0012,177.6999 280.3162,178.0589 279.8372,178.7799 C279.3572,179.4989 279.1172,180.5249 279.1172,181.8569 C279.1172,183.1749 279.3492,184.1789 279.8152,184.8699 C280.2812,185.5609 280.9792,185.9069 281.9102,185.9069 M281.2332,187.9479 C279.7512,187.9479 278.5952,187.4109 277.7642,186.3369 C276.9322,185.2619 276.5172,183.7549 276.5172,181.8139 C276.5172,179.8659 276.9382,178.3499 277.7792,177.2639 C278.6212,176.1799 279.7872,175.6369 281.2762,175.6369 C282.8382,175.6369 284.0262,176.2139 284.8432,177.3669 L284.9722,177.3669 C284.8492,176.5139 284.7892,175.8419 284.7892,175.3469 L284.7892,171.0179 L287.3242,171.0179 L287.3242,187.7329 L285.3482,187.7329 L284.9072,186.1759 L284.7892,186.1759 C283.9792,187.3569 282.7952,187.9479 281.2332,187.9479" id="Fill-30" fill="#00B2BB" mask="url(#mask-2)"></path>
            <path d="M295.3595,185.9069 C295.9755,185.9069 296.5905,185.8099 297.2075,185.6169 L297.2075,187.5179 C296.9275,187.6399 296.5685,187.7419 296.1275,187.8249 C295.6875,187.9069 295.2305,187.9479 294.7575,187.9479 C292.3665,187.9479 291.1705,186.6869 291.1705,184.1669 L291.1705,177.7639 L289.5475,177.7639 L289.5475,176.6469 L291.2885,175.7229 L292.1475,173.2099 L293.7055,173.2099 L293.7055,175.8519 L297.0885,175.8519 L297.0885,177.7639 L293.7055,177.7639 L293.7055,184.1239 C293.7055,184.7319 293.8575,185.1819 294.1625,185.4709 C294.4655,185.7619 294.8655,185.9069 295.3595,185.9069" id="Fill-31" fill="#00B2BB" mask="url(#mask-2)"></path>
            <path d="M308.1329,180.6002 L308.1329,185.5742 L310.8619,185.5742 C311.9359,185.5742 312.7459,185.3682 313.2949,184.9552 C313.8419,184.5442 314.1159,183.8942 314.1159,183.0062 C314.1159,182.1902 313.8369,181.5842 313.2789,181.1912 C312.7199,180.7972 311.8709,180.6002 310.7329,180.6002 L308.1329,180.6002 Z M308.1329,178.5162 L310.6039,178.5162 C311.6779,178.5162 312.4619,178.3462 312.9559,178.0062 C313.4499,177.6652 313.6969,177.0872 313.6969,176.2712 C313.6969,175.5342 313.4309,174.9992 312.8969,174.6702 C312.3629,174.3412 311.5169,174.1762 310.3569,174.1762 L308.1329,174.1762 L308.1329,178.5162 Z M305.5659,172.0282 L310.2279,172.0282 C312.3909,172.0282 313.9529,172.3432 314.9159,172.9732 C315.8799,173.6032 316.3619,174.5992 316.3619,175.9592 C316.3619,176.8762 316.1249,177.6392 315.6529,178.2472 C315.1799,178.8562 314.4989,179.2402 313.6119,179.3972 L313.6119,179.5042 C314.7139,179.7122 315.5259,180.1212 316.0449,180.7352 C316.5639,181.3462 316.8229,182.1752 316.8229,183.2212 C316.8229,184.6322 316.3309,185.7372 315.3459,186.5362 C314.3619,187.3332 312.9919,187.7332 311.2369,187.7332 L305.5659,187.7332 L305.5659,172.0282 Z" id="Fill-32" fill="#00B2BB" mask="url(#mask-2)"></path>
            <path d="M319.821,187.733 L322.345,187.733 L322.345,175.852 L319.821,175.852 L319.821,187.733 Z M319.67,172.705 C319.67,172.254 319.793,171.906 320.041,171.663 C320.287,171.42 320.641,171.298 321.099,171.298 C321.543,171.298 321.889,171.42 322.135,171.663 C322.383,171.906 322.506,172.254 322.506,172.705 C322.506,173.134 322.383,173.473 322.135,173.719 C321.889,173.967 321.543,174.09 321.099,174.09 C320.641,174.09 320.287,173.967 320.041,173.719 C319.793,173.473 319.67,173.134 319.67,172.705 L319.67,172.705 Z" id="Fill-33" fill="#00B2BB" mask="url(#mask-2)"></path>
            <path d="M330.6798,177.5495 C329.8778,177.5495 329.2348,177.8035 328.7518,178.3125 C328.2678,178.8205 327.9798,179.5625 327.8868,180.5355 L333.2798,180.5355 C333.2648,179.5545 333.0288,178.8115 332.5708,178.3075 C332.1128,177.8015 331.4818,177.5495 330.6798,177.5495 M331.1418,187.9475 C329.2938,187.9475 327.8498,187.4085 326.8068,186.3305 C325.7658,185.2535 325.2438,183.7695 325.2438,181.8785 C325.2438,179.9385 325.7278,178.4125 326.6948,177.3025 C327.6608,176.1925 328.9898,175.6375 330.6798,175.6375 C332.2478,175.6375 333.4878,176.1135 334.3968,177.0665 C335.3058,178.0185 335.7608,179.3285 335.7608,180.9975 L335.7608,182.3615 L327.8438,182.3615 C327.8798,183.5155 328.1918,184.4015 328.7788,185.0205 C329.3658,185.6405 330.1928,185.9495 331.2598,185.9495 C331.9618,185.9495 332.6158,185.8835 333.2208,185.7505 C333.8258,185.6185 334.4758,185.3985 335.1698,185.0905 L335.1698,187.1425 C334.5538,187.4365 333.9308,187.6435 333.3008,187.7655 C332.6708,187.8875 331.9508,187.9475 331.1418,187.9475" id="Fill-34" fill="#00B2BB" mask="url(#mask-2)"></path>
            <polygon id="Fill-35" fill="#00B2BB" mask="url(#mask-2)" points="338.629 187.733 341.153 187.733 341.153 171.018 338.629 171.018"></polygon>
            <path d="M349.4903,177.5495 C348.6883,177.5495 348.0453,177.8035 347.5623,178.3125 C347.0783,178.8205 346.7903,179.5625 346.6973,180.5355 L352.0903,180.5355 C352.0753,179.5545 351.8393,178.8115 351.3813,178.3075 C350.9233,177.8015 350.2923,177.5495 349.4903,177.5495 M349.9523,187.9475 C348.1043,187.9475 346.6603,187.4085 345.6173,186.3305 C344.5763,185.2535 344.0543,183.7695 344.0543,181.8785 C344.0543,179.9385 344.5383,178.4125 345.5053,177.3025 C346.4713,176.1925 347.8003,175.6375 349.4903,175.6375 C351.0583,175.6375 352.2983,176.1135 353.2073,177.0665 C354.1163,178.0185 354.5713,179.3285 354.5713,180.9975 L354.5713,182.3615 L346.6543,182.3615 C346.6903,183.5155 347.0023,184.4015 347.5893,185.0205 C348.1763,185.6405 349.0033,185.9495 350.0703,185.9495 C350.7723,185.9495 351.4263,185.8835 352.0313,185.7505 C352.6363,185.6185 353.2863,185.3985 353.9803,185.0905 L353.9803,187.1425 C353.3643,187.4365 352.7413,187.6435 352.1113,187.7655 C351.4813,187.8875 350.7613,187.9475 349.9523,187.9475" id="Fill-36" fill="#00B2BB" mask="url(#mask-2)"></path>
            <path d="M363.4015,177.7643 L360.5015,177.7643 L360.5015,187.7333 L357.9655,187.7333 L357.9655,177.7643 L356.0105,177.7643 L356.0105,176.5823 L357.9655,175.8093 L357.9655,175.0353 C357.9655,173.6323 358.2955,172.5923 358.9545,171.9143 C359.6135,171.2393 360.6195,170.9003 361.9725,170.9003 C362.8605,170.9003 363.7345,171.0463 364.5935,171.3403 L363.9275,173.2523 C363.3045,173.0523 362.7105,172.9523 362.1445,172.9523 C361.5715,172.9523 361.1545,173.1293 360.8925,173.4833 C360.6315,173.8383 360.5015,174.3693 360.5015,175.0783 L360.5015,175.8523 L363.4015,175.8523 L363.4015,177.7643 Z" id="Fill-37" fill="#00B2BB" mask="url(#mask-2)"></path>
            <path d="M370.1466,177.5495 C369.3446,177.5495 368.7016,177.8035 368.2186,178.3125 C367.7346,178.8205 367.4466,179.5625 367.3536,180.5355 L372.7466,180.5355 C372.7316,179.5545 372.4956,178.8115 372.0376,178.3075 C371.5796,177.8015 370.9486,177.5495 370.1466,177.5495 M370.6086,187.9475 C368.7606,187.9475 367.3166,187.4085 366.2736,186.3305 C365.2326,185.2535 364.7106,183.7695 364.7106,181.8785 C364.7106,179.9385 365.1946,178.4125 366.1616,177.3025 C367.1276,176.1925 368.4566,175.6375 370.1466,175.6375 C371.7146,175.6375 372.9546,176.1135 373.8636,177.0665 C374.7726,178.0185 375.2276,179.3285 375.2276,180.9975 L375.2276,182.3615 L367.3106,182.3615 C367.3466,183.5155 367.6586,184.4015 368.2456,185.0205 C368.8326,185.6405 369.6596,185.9495 370.7266,185.9495 C371.4286,185.9495 372.0826,185.8835 372.6876,185.7505 C373.2926,185.6185 373.9426,185.3985 374.6366,185.0905 L374.6366,187.1425 C374.0206,187.4365 373.3976,187.6435 372.7676,187.7655 C372.1376,187.8875 371.4176,187.9475 370.6086,187.9475" id="Fill-38" fill="#00B2BB" mask="url(#mask-2)"></path>
            <polygon id="Fill-39" fill="#00B2BB" mask="url(#mask-2)" points="378.096 187.733 380.62 187.733 380.62 171.018 378.096 171.018"></polygon>
            <path d="M388.9142,185.9069 C389.9522,185.9069 390.7082,185.6149 391.1812,185.0319 C391.6532,184.4479 391.8962,183.5009 391.9112,182.1899 L391.9112,181.8359 C391.9112,180.3389 391.6682,179.2749 391.1812,178.6449 C390.6932,178.0149 389.9312,177.6999 388.8932,177.6999 C388.0052,177.6999 387.3202,178.0589 386.8412,178.7799 C386.3612,179.4989 386.1212,180.5249 386.1212,181.8569 C386.1212,183.1749 386.3532,184.1789 386.8192,184.8699 C387.2852,185.5609 387.9832,185.9069 388.9142,185.9069 M388.2372,187.9479 C386.7552,187.9479 385.5992,187.4109 384.7682,186.3369 C383.9362,185.2619 383.5212,183.7549 383.5212,181.8139 C383.5212,179.8659 383.9422,178.3499 384.7832,177.2639 C385.6252,176.1799 386.7912,175.6369 388.2802,175.6369 C389.8422,175.6369 391.0302,176.2139 391.8472,177.3669 L391.9762,177.3669 C391.8532,176.5139 391.7932,175.8419 391.7932,175.3469 L391.7932,171.0179 L394.3282,171.0179 L394.3282,187.7329 L392.3522,187.7329 L391.9112,186.1759 L391.7932,186.1759 C390.9832,187.3569 389.7992,187.9479 388.2372,187.9479" id="Fill-40" fill="#00B2BB" mask="url(#mask-2)"></path>
            <polygon id="Fill-41" fill="#1D1D1B" mask="url(#mask-2)" points="81.6729 187.734 73.0899 187.734 73.0899 172.029 81.6729 172.029 81.6729 173.039 74.1859 173.039 74.1859 178.979 81.2539 178.979 81.2539 179.989 74.1859 179.989 74.1859 186.724 81.6729 186.724"></polygon>
            <path d="M84.63,187.734 L85.693,187.734 L85.693,176.057 L84.63,176.057 L84.63,187.734 Z M84.479,172.813 C84.479,172.126 84.705,171.782 85.156,171.782 C85.378,171.782 85.552,171.872 85.677,172.05 C85.802,172.229 85.865,172.484 85.865,172.813 C85.865,173.135 85.802,173.389 85.677,173.576 C85.552,173.762 85.378,173.855 85.156,173.855 C84.705,173.855 84.479,173.507 84.479,172.813 L84.479,172.813 Z" id="Fill-42" fill="#1D1D1B" mask="url(#mask-2)"></path>
            <path d="M97.416,187.734 L97.416,180.161 C97.416,178.986 97.169,178.132 96.675,177.599 C96.181,177.065 95.414,176.798 94.376,176.798 C92.979,176.798 91.957,177.151 91.309,177.857 C90.661,178.562 90.337,179.706 90.337,181.289 L90.337,187.734 L89.273,187.734 L89.273,176.057 L90.176,176.057 L90.38,177.658 L90.444,177.658 C91.203,176.44 92.553,175.832 94.494,175.832 C97.144,175.832 98.469,177.254 98.469,180.096 L98.469,187.734 L97.416,187.734 Z" id="Fill-43" fill="#1D1D1B" mask="url(#mask-2)"></path>
            <path d="M106.3242,176.7769 C105.1992,176.7769 104.2972,177.1479 103.6172,177.8879 C102.9362,178.6309 102.5392,179.6989 102.4252,181.0949 L109.6432,181.0949 C109.6432,179.7419 109.3492,178.6829 108.7622,177.9219 C108.1752,177.1579 107.3622,176.7769 106.3242,176.7769 M106.6362,187.9489 C104.9382,187.9489 103.6152,187.4259 102.6662,186.3809 C101.7172,185.3349 101.2432,183.8709 101.2432,181.9869 C101.2432,180.1249 101.7012,178.6329 102.6182,177.5129 C103.5342,176.3919 104.7702,175.8319 106.3242,175.8319 C107.6992,175.8319 108.7842,176.3109 109.5792,177.2709 C110.3742,178.2309 110.7712,179.5339 110.7712,181.1809 L110.7712,182.0409 L102.3602,182.0409 C102.3742,183.6449 102.7482,184.8699 103.4832,185.7149 C104.2172,186.5589 105.2672,186.9819 106.6362,186.9819 C107.3022,186.9819 107.8872,186.9349 108.3922,186.8419 C108.8972,186.7499 109.5362,186.5479 110.3092,186.2409 L110.3092,187.2079 C109.6502,187.4939 109.0422,187.6889 108.4832,187.7929 C107.9252,187.8969 107.3082,187.9489 106.6362,187.9489" id="Fill-44" fill="#1D1D1B" mask="url(#mask-2)"></path>
            <polygon id="Fill-45" fill="#1D1D1B" mask="url(#mask-2)" points="119.318 187.734 120.414 187.734 120.414 172.029 119.318 172.029"></polygon>
            <path d="M132.4048,187.734 L132.4048,180.161 C132.4048,178.986 132.1578,178.132 131.6638,177.599 C131.1698,177.065 130.4028,176.798 129.3648,176.798 C127.9678,176.798 126.9458,177.151 126.2978,177.857 C125.6498,178.562 125.3258,179.706 125.3258,181.289 L125.3258,187.734 L124.2618,187.734 L124.2618,176.057 L125.1648,176.057 L125.3688,177.658 L125.4328,177.658 C126.1918,176.44 127.5418,175.832 129.4828,175.832 C132.1328,175.832 133.4578,177.254 133.4578,180.096 L133.4578,187.734 L132.4048,187.734 Z" id="Fill-46" fill="#1D1D1B" mask="url(#mask-2)"></path>
            <path d="M136.909,187.734 L137.972,187.734 L137.972,176.057 L136.909,176.057 L136.909,187.734 Z M136.758,172.813 C136.758,172.126 136.984,171.782 137.435,171.782 C137.657,171.782 137.831,171.872 137.956,172.05 C138.081,172.229 138.144,172.484 138.144,172.813 C138.144,173.135 138.081,173.389 137.956,173.576 C137.831,173.762 137.657,173.855 137.435,173.855 C136.984,173.855 136.758,173.507 136.758,172.813 L136.758,172.813 Z" id="Fill-47" fill="#1D1D1B" mask="url(#mask-2)"></path>
            <path d="M144.6353,187.0035 C145.3083,187.0035 145.8953,186.9455 146.3973,186.8315 L146.3973,187.6905 C145.8813,187.8625 145.2863,187.9485 144.6143,187.9485 C143.5823,187.9485 142.8213,187.6735 142.3313,187.1215 C141.8403,186.5695 141.5953,185.7035 141.5953,184.5225 L141.5953,176.9815 L139.8653,176.9815 L139.8653,176.3575 L141.5953,175.8745 L142.1323,173.2325 L142.6803,173.2325 L142.6803,176.0575 L146.1073,176.0575 L146.1073,176.9815 L142.6803,176.9815 L142.6803,184.3715 C142.6803,185.2675 142.8373,185.9295 143.1533,186.3585 C143.4683,186.7885 143.9623,187.0035 144.6353,187.0035" id="Fill-48" fill="#1D1D1B" mask="url(#mask-2)"></path>
            <path d="M148.592,187.734 L149.655,187.734 L149.655,176.057 L148.592,176.057 L148.592,187.734 Z M148.441,172.813 C148.441,172.126 148.667,171.782 149.118,171.782 C149.339,171.782 149.513,171.872 149.639,172.05 C149.764,172.229 149.827,172.484 149.827,172.813 C149.827,173.135 149.764,173.389 149.639,173.576 C149.513,173.762 149.339,173.855 149.118,173.855 C148.667,173.855 148.441,173.507 148.441,172.813 L148.441,172.813 Z" id="Fill-49" fill="#1D1D1B" mask="url(#mask-2)"></path>
            <path d="M156.0283,186.982 C157.2743,186.982 158.2573,186.626 158.9773,185.914 C159.6963,185.201 160.0563,184.211 160.0563,182.943 L160.0563,181.794 L158.0153,181.879 C156.3753,181.959 155.2063,182.214 154.5083,182.648 C153.8103,183.081 153.4613,183.755 153.4613,184.672 C153.4613,185.403 153.6843,185.97 154.1323,186.375 C154.5793,186.78 155.2123,186.982 156.0283,186.982 L156.0283,186.982 Z M160.3253,187.734 L160.0563,185.886 L159.9703,185.886 C159.3833,186.638 158.7793,187.169 158.1603,187.482 C157.5413,187.793 156.8083,187.949 155.9643,187.949 C154.8183,187.949 153.9263,187.655 153.2893,187.068 C152.6513,186.481 152.3333,185.668 152.3333,184.629 C152.3333,183.491 152.8073,182.606 153.7563,181.976 C154.7053,181.346 156.0783,181.013 157.8763,180.977 L160.0993,180.913 L160.0993,180.139 C160.0993,179.029 159.8743,178.191 159.4233,177.626 C158.9713,177.06 158.2443,176.777 157.2423,176.777 C156.1603,176.777 155.0403,177.078 153.8803,177.679 L153.4823,176.755 C154.7643,176.154 156.0313,175.853 157.2853,175.853 C158.5673,175.853 159.5253,176.186 160.1583,176.852 C160.7923,177.518 161.1093,178.556 161.1093,179.967 L161.1093,187.734 L160.3253,187.734 Z" id="Fill-50" fill="#1D1D1B" mask="url(#mask-2)"></path>
            <path d="M167.6436,187.0035 C168.3166,187.0035 168.9036,186.9455 169.4056,186.8315 L169.4056,187.6905 C168.8896,187.8625 168.2946,187.9485 167.6226,187.9485 C166.5906,187.9485 165.8296,187.6735 165.3396,187.1215 C164.8486,186.5695 164.6036,185.7035 164.6036,184.5225 L164.6036,176.9815 L162.8736,176.9815 L162.8736,176.3575 L164.6036,175.8745 L165.1406,173.2325 L165.6886,173.2325 L165.6886,176.0575 L169.1156,176.0575 L169.1156,176.9815 L165.6886,176.9815 L165.6886,184.3715 C165.6886,185.2675 165.8456,185.9295 166.1616,186.3585 C166.4766,186.7885 166.9706,187.0035 167.6436,187.0035" id="Fill-51" fill="#1D1D1B" mask="url(#mask-2)"></path>
            <path d="M171.6,187.734 L172.663,187.734 L172.663,176.057 L171.6,176.057 L171.6,187.734 Z M171.449,172.813 C171.449,172.126 171.675,171.782 172.126,171.782 C172.348,171.782 172.521,171.872 172.647,172.05 C172.772,172.229 172.835,172.484 172.835,172.813 C172.835,173.135 172.772,173.389 172.647,173.576 C172.521,173.762 172.348,173.855 172.126,173.855 C171.675,173.855 171.449,173.507 171.449,172.813 L171.449,172.813 Z" id="Fill-52" fill="#1D1D1B" mask="url(#mask-2)"></path>
            <path d="M178.7998,187.734 L174.2878,176.057 L175.3838,176.057 L178.4028,183.996 C178.8028,185.012 179.1038,185.901 179.3048,186.66 L179.3688,186.66 C179.6628,185.686 179.9638,184.791 180.2718,183.974 L183.2898,176.057 L184.3858,176.057 L179.8738,187.734 L178.7998,187.734 Z" id="Fill-53" fill="#1D1D1B" mask="url(#mask-2)"></path>
            <path d="M190.415,176.7769 C189.29,176.7769 188.388,177.1479 187.708,177.8879 C187.027,178.6309 186.63,179.6989 186.516,181.0949 L193.734,181.0949 C193.734,179.7419 193.44,178.6829 192.853,177.9219 C192.266,177.1579 191.453,176.7769 190.415,176.7769 M190.727,187.9489 C189.029,187.9489 187.706,187.4259 186.757,186.3809 C185.808,185.3349 185.334,183.8709 185.334,181.9869 C185.334,180.1249 185.792,178.6329 186.709,177.5129 C187.625,176.3919 188.861,175.8319 190.415,175.8319 C191.79,175.8319 192.875,176.3109 193.67,177.2709 C194.465,178.2309 194.862,179.5339 194.862,181.1809 L194.862,182.0409 L186.451,182.0409 C186.465,183.6449 186.839,184.8699 187.574,185.7149 C188.308,186.5589 189.358,186.9819 190.727,186.9819 C191.393,186.9819 191.978,186.9349 192.483,186.8419 C192.988,186.7499 193.627,186.5479 194.4,186.2409 L194.4,187.2079 C193.741,187.4939 193.133,187.6889 192.574,187.7929 C192.016,187.8969 191.399,187.9489 190.727,187.9489" id="Fill-54" fill="#1D1D1B" mask="url(#mask-2)"></path>
            <path d="M207.4155,176.7984 C206.1405,176.7984 205.1825,177.2454 204.5415,178.1414 C203.9005,179.0364 203.5805,180.3364 203.5805,182.0404 C203.5805,185.3494 204.8655,187.0034 207.4365,187.0034 C208.7545,187.0034 209.7215,186.6204 210.3375,185.8544 C210.9535,185.0874 211.2615,183.8234 211.2615,182.0624 L211.2615,181.8794 C211.2615,180.0744 210.9585,178.7774 210.3535,177.9854 C209.7485,177.1944 208.7695,176.7984 207.4155,176.7984 M207.4155,175.8314 C208.2605,175.8314 208.9905,175.9864 209.6065,176.2934 C210.2225,176.6014 210.7735,177.1274 211.2615,177.8724 L211.3255,177.8724 C211.2825,176.9704 211.2615,176.0854 211.2615,175.2194 L211.2615,171.0194 L212.3135,171.0194 L212.3135,187.7344 L211.6155,187.7344 L211.3475,185.9504 L211.2615,185.9504 C210.3735,187.2824 209.0985,187.9484 207.4365,187.9484 C205.8255,187.9484 204.5935,187.4474 203.7415,186.4444 C202.8895,185.4424 202.4635,183.9814 202.4635,182.0624 C202.4635,180.0424 202.8855,178.4994 203.7305,177.4324 C204.5755,176.3644 205.8045,175.8314 207.4155,175.8314" id="Fill-55" fill="#1D1D1B" mask="url(#mask-2)"></path>
            <path d="M220.3091,176.7769 C219.1841,176.7769 218.2821,177.1479 217.6021,177.8879 C216.9211,178.6309 216.5241,179.6989 216.4101,181.0949 L223.6281,181.0949 C223.6281,179.7419 223.3341,178.6829 222.7471,177.9219 C222.1611,177.1579 221.3471,176.7769 220.3091,176.7769 M220.6211,187.9489 C218.9231,187.9489 217.6001,187.4259 216.6511,186.3809 C215.7021,185.3349 215.2281,183.8709 215.2281,181.9869 C215.2281,180.1249 215.6861,178.6329 216.6031,177.5129 C217.5191,176.3919 218.7551,175.8319 220.3091,175.8319 C221.6841,175.8319 222.7691,176.3109 223.5641,177.2709 C224.3591,178.2309 224.7561,179.5339 224.7561,181.1809 L224.7561,182.0409 L216.3451,182.0409 C216.3591,183.6449 216.7331,184.8699 217.4681,185.7149 C218.2021,186.5589 219.2521,186.9819 220.6211,186.9819 C221.2871,186.9819 221.8711,186.9349 222.3771,186.8419 C222.8811,186.7499 223.5211,186.5479 224.2941,186.2409 L224.2941,187.2079 C223.6351,187.4939 223.0271,187.6889 222.4681,187.7929 C221.9101,187.8969 221.2931,187.9489 220.6211,187.9489" id="Fill-56" fill="#1D1D1B" mask="url(#mask-2)"></path>
            <path d="M232.2466,175.8316 C232.7406,175.8316 233.2706,175.8816 233.8366,175.9816 L233.6326,177.0026 C233.1446,176.8806 232.6406,176.8196 232.1176,176.8196 C231.1226,176.8196 230.3066,177.2426 229.6686,178.0876 C229.0306,178.9326 228.7126,179.9996 228.7126,181.2886 L228.7126,187.7336 L227.6486,187.7336 L227.6486,176.0576 L228.5516,176.0576 L228.6586,178.1626 L228.7336,178.1626 C229.2136,177.3036 229.7256,176.6996 230.2696,176.3526 C230.8136,176.0056 231.4736,175.8316 232.2466,175.8316" id="Fill-57" fill="#1D1D1B" mask="url(#mask-2)"></path>
        </g>
        <g id="oiclogo" transform="translate(15, 14)" fill-rule="nonzero">
            <path d="M186.35,8.31859446 C186.473381,10.5116537 185.790495,12.6741277 184.43,14.3985945 C183.035747,15.8255273 181.125014,16.629975 179.13,16.629975 C177.134986,16.629975 175.224253,15.8255273 173.83,14.3985945 C172.468297,12.6631696 171.785709,10.4909765 171.91,8.28859446 C171.784947,6.09818382 172.476123,3.93914984 173.85,2.22859446 C175.191008,0.726532408 177.138806,-0.0893374344 179.15,0.00859446272 C181.161203,-0.0940537373 183.109225,0.727135167 184.44,2.23859446 C185.796921,3.96446738 186.476208,6.12680451 186.35,8.31859446 L186.35,8.31859446 Z M173.14,8.31859446 C173.015086,10.2314239 173.56344,12.1276653 174.69,13.6785945 C175.855925,14.8816234 177.459691,15.560686 179.135,15.560686 C180.810309,15.560686 182.414075,14.8816234 183.58,13.6785945 C184.701397,12.1179664 185.245764,10.2162168 185.12,8.29859446 C185.235492,6.41004749 184.69111,4.54005863 183.58,3.00859446 C182.4786,1.72462259 180.838298,1.0322153 179.15,1.13859446 C177.457242,1.03989399 175.814139,1.73036644 174.7,3.00859446 C173.575008,4.54168776 173.023005,6.42062362 173.14,8.31859446 L173.14,8.31859446 Z" id="Shape" fill="#1D1D1B"></path>
            <path d="M194.92,16.6285945 C193.306865,16.7294765 191.769274,15.9337729 190.92,14.5585945 L190.84,14.5585945 L190.84,15.4785945 C190.84,16.0285945 190.84,16.6285945 190.84,17.2685945 L190.84,21.8485945 L189.74,21.8485945 L189.74,4.40859446 L190.67,4.40859446 L190.88,6.11859446 L191,6.11859446 C191.863936,4.7995016 193.37795,4.05591008 194.95,4.17859446 C196.368898,4.08991379 197.745667,4.67995755 198.66,5.76859446 C199.594711,7.12767754 200.042293,8.76293929 199.93,10.4085945 C200.035451,12.0530294 199.557397,13.6819519 198.58,15.0085945 C197.683424,16.0951433 196.327112,16.6954782 194.92,16.6285945 Z M194.92,15.6285945 C196.040066,15.6808825 197.111244,15.1659658 197.77,14.2585945 C198.506168,13.1225249 198.856816,11.7795426 198.77,10.4285945 C198.77,6.9019278 197.496667,5.13859446 194.95,5.13859446 C193.802255,5.03645385 192.669944,5.45923253 191.87,6.28859446 C191.110649,7.38800517 190.757137,8.71721192 190.87,10.0485945 L190.87,10.4085945 C190.752529,11.8077778 191.081624,13.2081852 191.81,14.4085945 C192.5824,15.2932376 193.729771,15.7573847 194.9,15.6585945 L194.92,15.6285945 Z" id="Shape" fill="#1D1D1B"></path>
            <path d="M208.1,16.6285945 C206.560725,16.7232881 205.058825,16.1298547 204,15.0085945 C202.953389,13.7434891 202.427778,12.1273245 202.53,10.4885945 C202.461228,8.83282417 202.982124,7.2063532 204,5.89859446 C204.927181,4.75584256 206.339661,4.11818783 207.81,4.17859446 C209.091755,4.12038519 210.327155,4.66410936 211.15,5.64859446 C212.018064,6.7955744 212.453629,8.2120439 212.38,9.64859446 L212.38,10.5385945 L203.7,10.5385945 C203.622371,11.8967495 204.033902,13.2377735 204.86,14.3185945 C205.689883,15.2166329 206.879551,15.6939688 208.1,15.6185945 C208.703379,15.6252166 209.30604,15.5749949 209.9,15.4685945 C210.584889,15.3306725 211.254718,15.1263748 211.9,14.8585945 L211.9,15.8585945 C211.303674,16.134636 210.67561,16.3361541 210.03,16.4585945 C209.393518,16.5763712 208.74727,16.6332946 208.1,16.6285945 Z M207.78,5.14859446 C206.731705,5.10657993 205.716989,5.52268647 205,6.28859446 C204.235665,7.22116833 203.806103,8.38309857 203.78,9.58859446 L211.2,9.58859446 C211.268642,8.42773804 210.948438,7.2771135 210.29,6.31859446 C209.694154,5.54266106 208.75739,5.10600218 207.78,5.14859446 L207.78,5.14859446 Z" id="Shape" fill="#1D1D1B"></path>
            <path d="M224,16.4085945 L224,8.61859446 C224.086678,7.68835643 223.82671,6.75888123 223.27,6.00859446 C222.639985,5.40511329 221.778476,5.10577541 220.91,5.18859446 C219.752222,5.08297006 218.604884,5.47998539 217.76,6.27859446 C217.00031,7.29046964 216.643894,8.54861845 216.76,9.80859446 L216.76,16.4085945 L215.66,16.4085945 L215.66,4.40859446 L216.59,4.40859446 L216.8,6.00859446 L216.87,6.00859446 C217.623333,4.78859446 219,4.17859446 221,4.17859446 C223.726667,4.17859446 225.09,5.63859446 225.09,8.55859446 L225.09,16.4085945 L224,16.4085945 Z" id="Path" fill="#1D1D1B"></path>
            <polygon id="Path" fill="#1D1D1B" points="172.77 43.7185945 172.77 27.5685945 173.9 27.5685945 173.9 43.7185945"></polygon>
            <path d="M186.57,43.7185945 L186.57,35.9285945 C186.653192,34.9878573 186.382162,34.0499516 185.81,33.2985945 C185.172083,32.7014516 184.310551,32.4033689 183.44,32.4785945 C182.282702,32.3768839 181.136926,32.7733586 180.29,33.5685945 C179.53031,34.5804696 179.173894,35.8386184 179.29,37.0985945 L179.29,43.7185945 L178.2,43.7185945 L178.2,31.7185945 L179.13,31.7185945 L179.34,33.3585945 L179.4,33.3585945 C180.18,32.1119278 181.57,31.4885945 183.57,31.4885945 C186.29,31.4885945 187.65,32.9485945 187.65,35.8685945 L187.65,43.7185945 L186.57,43.7185945 Z" id="Path" fill="#1D1D1B"></path>
            <path d="M199.91,43.7185945 L199.91,35.9285945 C199.993192,34.9878573 199.722162,34.0499516 199.15,33.2985945 C198.514493,32.7041483 197.657182,32.4062693 196.79,32.4785945 C195.629496,32.3752571 194.480002,32.7717597 193.63,33.5685945 C192.874623,34.5826016 192.518684,35.8390653 192.63,37.0985945 L192.63,43.7185945 L191.54,43.7185945 L191.54,31.7185945 L192.47,31.7185945 L192.68,33.3585945 L192.74,33.3585945 C193.53,32.1085945 194.91,31.4885945 196.91,31.4885945 C199.63,31.4885945 201,32.9485945 201,35.8685945 L201,43.7185945 L199.91,43.7185945 Z" id="Path" fill="#1D1D1B"></path>
            <path d="M214.81,37.6985945 C214.910965,39.3504126 214.406093,40.9823586 213.39,42.2885945 C212.395494,43.4085407 210.945789,44.0156508 209.45,43.9385945 C208.469254,43.9600962 207.503405,43.6960509 206.67,43.1785945 C205.856346,42.6522512 205.216245,41.897349 204.83,41.0085945 C204.383209,39.9705109 204.164939,38.8484669 204.19,37.7185945 C204.086513,36.0726234 204.591919,34.4460694 205.61,33.1485945 C206.632825,32.0927994 208.040008,31.4968083 209.51,31.4968083 C210.979992,31.4968083 212.387175,32.0927994 213.41,33.1485945 C214.404824,34.4495252 214.901412,36.0634371 214.81,37.6985945 L214.81,37.6985945 Z M205.34,37.6985945 C205.257286,39.0699312 205.637628,40.4293026 206.42,41.5585945 C207.200154,42.4415689 208.321745,42.9472529 209.5,42.9472529 C210.678255,42.9472529 211.799846,42.4415689 212.58,41.5585945 C213.362372,40.4293026 213.742714,39.0699312 213.66,37.6985945 C213.747895,36.3283454 213.363155,34.9694034 212.57,33.8485945 C211.813897,32.9299075 210.668479,32.4220687 209.48,32.4785945 C208.297431,32.4114426 207.154829,32.9176114 206.41,33.8385945 C205.633282,34.9701334 205.256697,36.3286559 205.34,37.6985945 L205.34,37.6985945 Z" id="Shape" fill="#1D1D1B"></path>
            <path d="M220.76,43.7185945 L216.13,31.7185945 L217.25,31.7185945 L220.36,39.8785945 C220.721893,40.772446 221.029126,41.6874662 221.28,42.6185945 L221.35,42.6185945 C221.65,41.6185945 221.96,40.6885945 222.28,39.8585945 L225.38,31.7185945 L226.51,31.7185945 L221.87,43.7185945 L220.76,43.7185945 Z" id="Path" fill="#1D1D1B"></path>
            <path d="M235.81,43.7185945 L235.53,41.8185945 L235.44,41.8185945 C234.951624,42.4985463 234.315754,43.059206 233.58,43.4585945 C232.878228,43.7934415 232.107324,43.9579011 231.33,43.9385945 C230.329757,43.9948083 229.344833,43.6736376 228.57,43.0385945 C227.890439,42.3851919 227.525937,41.4702934 227.57,40.5285945 C227.537025,39.4213092 228.097418,38.3805794 229.04,37.7985945 C230.329344,37.0777999 231.794383,36.731455 233.27,36.7985945 L235.56,36.7285945 L235.56,35.9285945 C235.629453,35.0137659 235.38231,34.1028673 234.86,33.3485945 C234.291557,32.7226723 233.461901,32.4004397 232.62,32.4785945 C231.40986,32.505352 230.223614,32.82077 229.16,33.3985945 L228.75,32.4585945 C229.968528,31.8632783 231.303932,31.5456504 232.66,31.5285945 C233.756486,31.4220905 234.846713,31.7854996 235.66,32.5285945 C236.392144,33.4271344 236.750245,34.5730578 236.66,35.7285945 L236.66,43.7285945 L235.81,43.7185945 Z M231.39,42.9485945 C232.517333,43.048016 233.630721,42.6424552 234.429994,41.8412516 C235.229267,41.0400479 235.632141,39.9256845 235.53,38.7985945 L235.53,37.6185945 L233.44,37.6985945 C232.191503,37.6765832 230.955189,37.947134 229.83,38.4885945 C229.113932,38.9296757 228.698826,39.7291376 228.75,40.5685945 C228.710435,41.2281139 228.962747,41.8716913 229.44,42.3285945 C229.989921,42.771239 230.685422,42.9923728 231.39,42.9485945 L231.39,42.9485945 Z" id="Shape" fill="#1D1D1B"></path>
            <path d="M243.67,43.0085945 C244.278214,43.0176014 244.885472,42.9572111 245.48,42.8285945 L245.48,43.7185945 C244.887091,43.8992641 244.269768,43.9869713 243.65,43.9785945 C242.780324,44.0505326 241.922426,43.7402291 241.3,43.1285945 C240.734678,42.3589007 240.468155,41.4100768 240.55,40.4585945 L240.55,32.6685945 L238.77,32.6685945 L238.77,32.0085945 L240.55,31.5085945 L241.1,28.7885945 L241.66,28.7885945 L241.66,31.6985945 L245.19,31.6985945 L245.19,32.6485945 L241.66,32.6485945 L241.66,40.2485945 C241.617841,40.9494265 241.788654,41.6466212 242.15,42.2485945 C242.492693,42.7459623 243.06649,43.0328609 243.67,43.0085945 L243.67,43.0085945 Z" id="Path" fill="#1D1D1B"></path>
            <path d="M247.92,28.3785945 C247.92,27.6785945 248.16,27.3185945 248.62,27.3185945 C248.837015,27.3091232 249.042693,27.4157714 249.16,27.5985945 C249.302779,27.8325622 249.369185,28.1051739 249.35,28.3785945 C249.366156,28.6549202 249.300037,28.9298341 249.16,29.1685945 C249.042693,29.3514176 248.837015,29.4580657 248.62,29.4485945 C248.16,29.4485945 247.92,29.0985945 247.92,28.3785945 Z M249.17,43.7185945 L248.08,43.7185945 L248.08,31.7185945 L249.17,31.7185945 L249.17,43.7185945 Z" id="Shape" fill="#1D1D1B"></path>
            <path d="M263.12,37.6985945 C263.220965,39.3504126 262.716093,40.9823586 261.7,42.2885945 C260.708598,43.4069433 259.262612,44.0140368 257.77,43.9385945 C256.786294,43.9586004 255.817657,43.6947422 254.98,43.1785945 C254.166346,42.6522512 253.526245,41.897349 253.14,41.0085945 C252.693209,39.9705109 252.474939,38.8484669 252.5,37.7185945 C252.396513,36.0726234 252.901919,34.4460694 253.92,33.1485945 C254.907101,32.0371433 256.345376,31.4338769 257.83,31.5085945 C259.312886,31.434629 260.747394,32.0467843 261.72,33.1685945 C262.710251,34.4642007 263.206584,36.0701918 263.12,37.6985945 L263.12,37.6985945 Z M253.65,37.6985945 C253.567286,39.0699312 253.947628,40.4293026 254.73,41.5585945 C255.510154,42.4415689 256.631745,42.9472529 257.81,42.9472529 C258.988255,42.9472529 260.109846,42.4415689 260.89,41.5585945 C261.682979,40.4330906 262.073977,39.0734045 262,37.6985945 C262.087895,36.3283454 261.703155,34.9694034 260.91,33.8485945 C260.153897,32.9299075 259.008479,32.4220687 257.82,32.4785945 C256.637431,32.4114426 255.494829,32.9176114 254.75,33.8385945 C253.962684,34.9663745 253.575452,36.3252054 253.65,37.6985945 Z" id="Shape" fill="#1D1D1B"></path>
            <path d="M274.82,43.7185945 L274.82,35.9285945 C274.903192,34.9878573 274.632162,34.0499516 274.06,33.2985945 C273.422083,32.7014516 272.560551,32.4033689 271.69,32.4785945 C270.532702,32.3768839 269.386926,32.7733586 268.54,33.5685945 C267.78031,34.5804696 267.423894,35.8386184 267.54,37.0985945 L267.54,43.7185945 L266.45,43.7185945 L266.45,31.7185945 L267.38,31.7185945 L267.58,33.3585945 L267.65,33.3585945 C268.43,32.1119278 269.816667,31.4885945 271.81,31.4885945 C274.543333,31.4885945 275.906667,32.9485945 275.900024,35.8685945 L275.900024,43.7185945 L274.82,43.7185945 Z" id="Path" fill="#1D1D1B"></path>
            <path d="M179.67,55.6685945 C177.855435,55.5901872 176.100045,56.3231265 174.88,57.6685945 C173.649663,59.158938 173.02813,61.0592583 173.14,62.9885945 C173.022763,64.9192002 173.608931,66.8269097 174.79,68.3585945 C175.985593,69.6755799 177.714649,70.3782386 179.49,70.2685945 C180.752048,70.278231 182.008708,70.1030398 183.22,69.7485945 L183.22,70.7485945 C181.927628,71.1587945 180.575333,71.3481157 179.22,71.3085945 C177.196507,71.4123123 175.231912,70.609614 173.86,69.1185945 C172.456762,67.389795 171.74419,65.2021977 171.86,62.9785945 C171.827143,61.4748733 172.149184,59.9845795 172.8,58.6285945 C173.383371,57.4183479 174.317115,56.4114372 175.48,55.7385945 C176.720783,55.0421 178.127724,54.6964144 179.55,54.7385945 C181.008896,54.714346 182.454567,55.0185179 183.78,55.6285945 L183.33,56.6285945 C182.199793,56.0320771 180.947488,55.7036038 179.67,55.6685945 Z" id="Path" fill="#1D1D1B"></path>
            <path d="M186.39,55.6885945 C186.39,54.9885945 186.63,54.6285945 187.09,54.6285945 C187.307015,54.6191232 187.512693,54.7257714 187.63,54.9085945 C187.76812,55.1444713 187.83417,55.4156214 187.82,55.6885945 C187.831077,55.9644446 187.765297,56.2379482 187.63,56.4785945 C187.512693,56.6614176 187.307015,56.7680657 187.09,56.7585945 C186.63,56.7585945 186.39,56.4085945 186.39,55.6885945 Z M187.64,71.0085945 L186.55,71.0085945 L186.55,59.0085945 L187.64,59.0085945 L187.64,71.0085945 Z" id="Shape" fill="#1D1D1B"></path>
            <path d="M194.83,70.2785945 C195.437615,70.285293 196.044259,70.2283154 196.64,70.1085945 L196.64,71.0085945 C196.048208,71.1942471 195.430083,71.2820681 194.81,71.2685945 C193.940324,71.3405326 193.082426,71.0302291 192.46,70.4185945 C191.894678,69.6489007 191.628155,68.7000768 191.71,67.7485945 L191.71,60.0085945 L189.93,60.0085945 L189.93,59.3685945 L191.71,58.8685945 L192.26,56.1485945 L192.82,56.1485945 L192.82,59.0085945 L196.35,59.0085945 L196.35,60.0085945 L192.82,60.0085945 L192.82,67.6085945 C192.773336,68.3098262 192.944474,69.0083491 193.31,69.6085945 C193.672777,70.0720192 194.24318,70.323447 194.83,70.2785945 L194.83,70.2785945 Z" id="Path" fill="#1D1D1B"></path>
            <path d="M197.23,59.0085945 L198.36,59.0085945 L200.9,65.7385945 C201.67,67.8185945 202.16,69.2085945 202.37,69.9285945 L202.43,69.9285945 C202.74,68.9285945 203.24,67.5585945 203.95,65.6785945 L206.48,59.0085945 L207.61,59.0085945 L202.23,73.0085945 C201.958649,73.8124049 201.59275,74.5811267 201.14,75.2985945 C200.881264,75.6723418 200.538843,75.9805209 200.14,76.1985945 C199.693197,76.4085825 199.203524,76.5113111 198.71,76.4985945 C198.231609,76.4876772 197.757062,76.4102688 197.3,76.2685945 L197.3,75.2685945 C197.751055,75.3828864 198.214692,75.4400012 198.68,75.4385945 C199.030768,75.4444237 199.376492,75.3545356 199.68,75.1785945 C200.000167,74.9653541 200.267038,74.6813767 200.46,74.3485945 C200.781468,73.7884154 201.049324,73.1991334 201.26,72.5885945 C201.57,71.7785945 201.76,71.2585945 201.85,71.0085945 L197.23,59.0085945 Z" id="Path" fill="#1D1D1B"></path>
            <path d="M215.52,54.8785945 L220.52,54.8785945 C222.246149,54.7580987 223.972976,55.1034642 225.52,55.8785945 C226.57997,56.5530454 227.183221,57.7557058 227.09,59.0085945 C227.120669,59.8538697 226.8826,60.6871106 226.41,61.3885945 C225.984389,61.9911246 225.330011,62.3924285 224.6,62.4985945 L224.6,62.6085945 C225.470689,62.7520635 226.259616,63.2069399 226.82,63.8885945 C227.303823,64.6297309 227.54176,65.5044997 227.5,66.3885945 C227.557658,67.7300068 226.961218,69.016081 225.9,69.8385945 C224.626593,70.6985085 223.103201,71.1101409 221.57,71.0085945 L215.57,71.0085945 L215.52,54.8785945 Z M218.95,61.2785945 L220.95,61.2785945 C221.644104,61.3299612 222.338343,61.1806999 222.95,60.8485945 C223.39056,60.5116152 223.625168,59.9705047 223.57,59.4185945 C223.613663,58.8822255 223.350373,58.367261 222.89,58.0885945 C222.222649,57.7743306 221.48581,57.6366035 220.75,57.6885945 L219,57.6885945 L218.95,61.2785945 Z M219,64.0085945 L219,68.2085945 L221.23,68.2085945 C221.965959,68.2699893 222.700578,68.075739 223.31,67.6585945 C223.783091,67.2458183 224.034888,66.6348406 223.99,66.0085945 C223.99,64.6685945 222.99,64.0085945 221.12,64.0085945 L219,64.0085945 Z" id="Shape" fill="#00B2BB"></path>
            <path d="M230.31,55.4885945 C230.31,54.3985945 230.92,53.8485945 232.15,53.8485945 C233.38,53.8485945 233.98,54.3985945 233.98,55.4885945 C234.009432,55.9425175 233.841801,56.3871037 233.52,56.7085945 C233.138154,57.0282483 232.646564,57.1861311 232.15,57.1485945 C230.92,57.1485945 230.31,56.5985945 230.31,55.4885945 Z M233.82,71.0085945 L230.45,71.0085945 L230.45,58.6885945 L233.82,58.6885945 L233.82,71.0085945 Z" id="Shape" fill="#00B2BB"></path>
            <path d="M243,71.2485945 C241.288978,71.3533364 239.608293,70.7618506 238.34,69.6085945 C237.159985,68.3542307 236.551844,66.6673632 236.66,64.9485945 C236.545287,63.2094323 237.099806,61.4922136 238.21,60.1485945 C240.543247,57.9666468 244.14027,57.8763989 246.58,59.9385945 C247.584242,61.0673634 248.095517,62.5507821 248,64.0585945 L248,65.6985945 L240,65.6985945 C239.987737,66.5262612 240.291747,67.3274182 240.85,67.9385945 C241.450455,68.5035439 242.256945,68.7964843 243.08,68.7485945 C243.789699,68.7506503 244.497411,68.6735063 245.19,68.5185945 C245.905265,68.3385583 246.601747,68.0907716 247.27,67.7785945 L247.27,70.3785945 C246.672043,70.6814041 246.036472,70.9033495 245.38,71.0385945 C244.59544,71.1862323 243.798291,71.256569 243,71.2485945 Z M242.52,60.8485945 C241.887389,60.8179959 241.273223,61.0665867 240.84,61.5285945 C240.403958,62.0785111 240.161434,62.7568752 240.15,63.4585945 L244.87,63.4585945 C244.904256,62.7563412 244.67211,62.0670458 244.22,61.5285945 C243.766725,61.0530974 243.125406,60.8038991 242.47,60.8485945 L242.52,60.8485945 Z" id="Shape" fill="#00B2BB"></path>
            <polygon id="Path" fill="#00B2BB" points="254.09 71.0085945 250.72 71.0085945 250.72 53.8485945 254.09 53.8485945"></polygon>
            <path d="M263.22,71.2485945 C261.506067,71.3526339 259.82255,70.7614202 258.55,69.6085945 C257.373619,68.3525774 256.769169,66.6659086 256.88,64.9485945 C256.765287,63.2094323 257.319806,61.4922136 258.43,60.1485945 C259.543185,58.9827199 261.110375,58.3616887 262.72,58.4485945 C264.224312,58.3612569 265.697651,58.9006367 266.79,59.9385945 C267.812674,61.0586543 268.339217,62.544515 268.25,64.0585945 L268.25,65.6985945 L260.25,65.6985945 C260.233628,66.5269779 260.538197,67.3296077 261.1,67.9385945 C261.700455,68.5035439 262.506945,68.7964843 263.33,68.7485945 C264.039699,68.7506503 264.747411,68.6735063 265.44,68.5185945 C266.154783,68.3369694 266.851117,68.0892351 267.52,67.7785945 L267.52,70.3785945 C266.922043,70.6814041 266.286472,70.9033495 265.63,71.0385945 C264.835599,71.1881991 264.028304,71.2585443 263.22,71.2485945 Z M262.74,60.8485945 C262.107156,60.8166202 261.492434,61.0654364 261.06,61.5285945 C260.619219,62.0758679 260.376094,62.7559148 260.37,63.4585945 L265.09,63.4585945 C265.124256,62.7563412 264.89211,62.0670458 264.44,61.5285945 C263.997545,61.0679206 263.378104,60.8201443 262.74,60.8485945 Z" id="Shape" fill="#00B2BB"></path>
            <path d="M277.82,61.2085945 L274.9,61.2085945 L274.9,71.0085945 L271.53,71.0085945 L271.53,61.2085945 L269.68,61.2085945 L269.68,59.5885945 L271.53,58.6885945 L271.53,57.7785945 C271.414274,56.6568668 271.777412,55.5384018 272.53,54.6985945 C273.470659,53.9579316 274.656756,53.6006734 275.85,53.6985945 C276.909872,53.6785459 277.9643,53.8548489 278.96,54.2185945 L278.1,56.6885945 C277.492687,56.4892191 276.859075,56.3813703 276.22,56.3685945 C275.839339,56.3445787 275.469353,56.4999731 275.22,56.7885945 C274.999124,57.1081724 274.88693,57.4903351 274.9,57.8785945 L274.9,58.6585945 L277.82,58.6585945 L277.82,61.2085945 Z" id="Path" fill="#00B2BB"></path>
            <path d="M285.34,71.2485945 C283.628978,71.3533364 281.948293,70.7618506 280.68,69.6085945 C279.499985,68.3542307 278.891844,66.6673632 279,64.9485945 C278.889358,63.2099389 279.443404,61.4941835 280.55,60.1485945 C281.663952,58.9838583 283.230597,58.3630433 284.84,58.4485945 C286.347712,58.358441 287.825225,58.8980229 288.92,59.9385945 C289.938718,61.0610232 290.464652,62.5451658 290.38,64.0585945 L290.38,65.6985945 L282.38,65.6985945 C282.367737,66.5262612 282.671747,67.3274182 283.23,67.9385945 C283.830455,68.5035439 284.636945,68.7964843 285.46,68.7485945 C286.169725,68.7511532 286.877494,68.6740031 287.57,68.5185945 C288.285751,68.3401659 288.982385,68.092325 289.65,67.7785945 L289.65,70.3785945 C289.052043,70.6814041 288.416472,70.9033495 287.76,71.0385945 C286.962319,71.1888603 286.151642,71.2592083 285.34,71.2485945 Z M284.86,60.8485945 C284.230113,60.8168417 283.618541,61.0658651 283.19,61.5285945 C282.746315,62.074931 282.49971,62.7548577 282.49,63.4585945 L287.22,63.4585945 C287.246587,62.7557283 287.011406,62.0680016 286.56,61.5285945 C286.11982,61.064556 285.498777,60.8161388 284.86,60.8485945 L284.86,60.8485945 Z" id="Shape" fill="#00B2BB"></path>
            <polygon id="Path" fill="#00B2BB" points="296.48 71.0085945 293.11 71.0085945 293.11 53.8485945 296.48 53.8485945"></polygon>
            <path d="M303.93,71.2485945 C302.579369,71.3024185 301.292916,70.6704764 300.51,69.5685945 C299.607372,68.1773761 299.17291,66.5341305 299.27,64.8785945 C299.171579,63.207572 299.61334,61.5492148 300.53,60.1485945 C301.336743,59.0350244 302.645865,58.3973431 304.02,58.4485945 C305.443008,58.3797739 306.795217,59.0730195 307.57,60.2685945 L307.68,60.2685945 C307.522894,59.454405 307.439225,58.6277516 307.43,57.7985945 L307.43,53.8485945 L310.81,53.8485945 L310.81,71.0085945 L308.22,71.0085945 L307.57,69.4085945 L307.43,69.4085945 C306.693045,70.6216349 305.347063,71.3292372 303.93,71.2485945 L303.93,71.2485945 Z M305.11,68.5685945 C305.82277,68.6289166 306.522532,68.3512331 307,67.8185945 C307.475828,67.0561888 307.7062,66.1661133 307.66,65.2685945 L307.66,64.8985945 C307.739994,63.9093668 307.527896,62.9184141 307.05,62.0485945 C306.569803,61.444585 305.81872,61.1216193 305.05,61.1885945 C304.329065,61.1821408 303.660453,61.5642044 303.3,62.1885945 C302.836603,63.0387388 302.62175,64.0021117 302.68,64.9685945 C302.615658,65.9208524 302.834882,66.8708273 303.31,67.6985945 C303.718344,68.2813381 304.399671,68.6106461 305.11,68.5685945 L305.11,68.5685945 Z" id="Shape" fill="#00B2BB"></path>
            <path d="M35.43,71.1285959 C49.7650513,71.1326393 62.69083,62.5005256 68.1794196,49.2578258 C73.6680092,36.0151261 70.6383821,20.7701104 60.5034001,10.6322678 C50.3684181,0.494425278 35.124258,-2.53950398 21.8800099,2.94534821 C8.63576176,8.4302004 7.10542736e-15,21.3535426 7.10542736e-15,35.6885945 C7.10542736e-15,55.2576614 15.8609338,71.1230727 35.43,71.1285959" id="Path" fill="#FFF265"></path>
            <path d="M152.85,71.0685945 L152.85,0.198594463 C133.511843,0.523467893 118.005294,16.2927083 118.005294,35.6335945 C118.005294,54.9744806 133.511843,70.743721 152.85,71.0685945" id="Path" fill="#00B2BB"></path>
            <rect id="Rectangle" fill="#00B2BB" x="84.24" y="0.178594463" width="19.84" height="70.87"></rect>
        </g>
    </g>
</svg>